<?xml version="1.0" encoding="utf-8"?>
<!-- Generator: Adobe Illustrator 15.1.0, SVG Export Plug-In . SVG Version: 6.00 Build 0)  -->
<!DOCTYPE svg PUBLIC "-//W3C//DTD SVG 1.1//EN" "http://www.w3.org/Graphics/SVG/1.1/DTD/svg11.dtd">
<svg version="1.1" id="Layer_1" xmlns="http://www.w3.org/2000/svg" xmlns:xlink="http://www.w3.org/1999/xlink" x="0px" y="0px"
	 width="256px" height="256px" viewBox="0 0 256 256" style="enable-background:new 0 0 256 256;" xml:space="preserve">
<rect id="Background" width="256" height="256"/>
<path id="Star" style="fill:#FFD700;" d="M217.8457,96.436l-54.6709-7.9604l-24.4297-49.4463
	c-2.1953-4.418-6.4795-6.6523-10.7603-6.6523c-4.2612,0-8.5146,2.2041-10.7202,6.6523l-24.437,49.4429l-54.6714,7.9517
	c-9.8047,1.4189-13.7329,13.4795-6.6279,20.3901l39.5537,38.4741l-9.3604,54.3496c-1.3286,7.7607,4.8638,13.9854,11.8052,13.9854
	c1.8394,0,3.7334-0.4365,5.5527-1.3994l48.9102-25.6523l48.9067,25.6602c1.8105,0.9521,3.7051,1.3848,5.5381,1.3848
	c6.9453,0,13.1533-6.2031,11.8281-13.9697l-9.3506-54.3496l39.5557-38.4673C231.5791,109.918,227.6484,97.854,217.8457,96.436z
	 M172.375,142.4531l-6.7686,6.584l1.6006,9.2949l7.2881,42.3799l-38.1416-20.0186l-8.3604-4.3857l0.0112-118.4795l19.0581,38.5771
	l4.1777,8.4521l9.3428,1.3599l42.6631,6.2114L172.375,142.4531z"/>
<g id="Brackets">
	<path style="fill:#FFFFFF;" d="M21.6978,75.8584c7.04,0,13.9526,1.1523,18.9448,2.3042v5.3765H21.3135v104.9648h19.3291v5.376
		c-5.3765,1.4082-12.1606,2.4316-18.9448,2.4316c-8.5767,0-12.0327-1.792-12.0327-12.416V88.2754
		C9.665,77.6509,13.1211,75.8584,21.6978,75.8584z"/>
	<path style="fill:#FFFFFF;" d="M234.3057,196.3115c-6.7852,0-13.6973-1.0234-18.9453-2.4316v-5.376h19.2012V83.5391h-19.2012
		v-5.3765c4.9922-1.1519,11.9043-2.3042,18.9453-2.3042c8.4482,0,12.0322,1.7925,12.0322,12.417v95.6201
		C246.3379,194.5195,242.7539,196.3115,234.3057,196.3115z"/>
</g>
</svg>
